<?xml version="1.0" encoding="utf-8"?>
<!-- Generator: Adobe Illustrator 21.0.0, SVG Export Plug-In . SVG Version: 6.00 Build 0)  -->
<svg version="1.1" id="Layer_1" width="183" height="40" xmlns="http://www.w3.org/2000/svg" xmlns:xlink="http://www.w3.org/1999/xlink" x="0px" y="0px"
	 viewBox="0 0 183 40" style="enable-background:new 0 0 183 40;" xml:space="preserve">
<style type="text/css">
	.st0{fill:#06A4DE;}
</style>
<g>
	<g>
		<path class="st0" d="M38.2,9.8c1.7,3.3,2.2,7.8,1.1,11.5c-1.1,4.4-4.8,8.8-9.1,10.6c-4.8,2.4-11.6,1.8-15.9-1.3
			c-6-4.1-8.4-11.1-6.6-18.1c1.1-4.1,4.4-8.3,8.4-10.2c2.3-1.1,4.7-1.7,7.4-1.8C29.7,0.5,35.6,4.1,38.2,9.8z M23.9,1.3
			c0.1,0.6,0.1,1.5,0,2.2c0-0.1,0-0.1,0.1-0.2c0.1-0.1,0.2,0,0.3,0.1c0,0.1,0.1,0.3,0,0.4c0.1,0,0.1-0.1,0.2-0.1
			c1.9,0.1,3.6,0.7,5.1,1.6v0c0.3-0.2,0.7-0.4,1.1-0.1C31,5,31.1,5.5,31.4,5.6c0.4,0.2,0.8,0.7,0.9,1.1c0.1,0.1,0.3,0.3,0.3,0.4
			c0.3-0.6,0.8-0.9,1.2-1.4l0.3-0.1c-2.5-2.3-5.4-3.6-8.6-4.1C24.9,1.4,24.4,1.4,23.9,1.3z M23,1.3c-3.3,0.1-6.2,1.2-8.8,3.1
			c-0.5,0.3-0.9,0.9-1.4,1.2h0.1c0.6,0.5,1.3,1.1,1.8,1.7l0-0.1C17,5.1,19.8,3.9,23,3.7l-0.1-0.2l0-2L23,1.3z M25.8,2.6l-1.2,0.5
			c-0.1,0-0.3-0.1-0.4,0c0,0,0,0.1,0,0.1c0.4,0.6,1.2,0.2,1.7,0.1c0.4,0.2,0.8,0,1.1-0.3V3.1C26.7,2.7,26.2,2.6,25.8,2.6z M23.9,4.6
			l0.1,0.2c0,0.8,0,1.6,0,2.3c0.3-0.1,0.6,0,0.9,0c1.6,0.3,3.1,0.8,4.4,1.8c-0.2-0.2-0.3-0.4-0.4-0.6c0,0,0.1,0,0.1,0
			c0-0.3-0.3-0.4-0.3-0.6c0,0,0.1-0.1,0.2-0.1c0.3,0.3,0.5,0.5,0.7,0.8c0.2-0.1,0.3,0,0.5,0.1c0.2,0.1,0.1,0.4,0.3,0.6
			c0,0.5,0.6,0.7,0.6,1.2c0,0.1,0.1,0,0.2,0.1l0.5,0.6c-0.1,0.1,0,0.3,0.1,0.3c0.2,0.1,0.3-0.2,0.6-0.1c0.3,0.2,0,0.4,0,0.6
			c0.1,0,0.3-0.1,0.4,0c0,0.2-0.1,0.3-0.2,0.4c0,0.2,0.1,0.1,0.3,0.2c0.1,0,0.2,0.2,0.2,0.3c0.4,0.4-0.1,0.9,0.1,1.3
			c0.1,0.3,0,0.6-0.2,0.8c0,0.4-0.3,0.6-0.4,0.9l-0.4,0.1c-0.2,0.2,0.2,0.5,0,0.6l0.9,0l-0.1-0.1c-0.1-0.4-0.1-0.8,0.1-1.2
			c0.1-0.3,0.2-0.6,0.4-0.9c0.1,0,0.2-0.1,0.2,0c0,0.3,0,0.6-0.1,0.8c0.3,0.4,0.2,0.9,0.3,1.3c0.8,0,1.6-0.1,2.4-0.1l-0.1-0.2
			c-0.1-1.5-0.4-2.9-1.1-4.2c-0.2,0-0.3,0.1-0.5,0.1c-0.1,0-0.1-0.1-0.1-0.2c-0.3-0.3-0.5-0.7-0.9-1c-0.4,0-0.6-0.4-1-0.5
			c-0.3-0.1-0.1-0.7-0.6-0.5c-0.2-0.1-0.5-0.3-0.5-0.5c0-0.4-0.1-0.9-0.5-1.2c-0.3-0.1-0.4,0.3-0.7,0.2c-0.2-0.1-0.1-0.3-0.1-0.4
			c-0.1-0.1-0.2-0.2-0.2-0.4c0.4-0.5-0.5-0.5-0.3-1c0-0.4-0.4-0.5-0.6-0.8c-1.3-0.6-2.5-1-4-1.1C24.5,4.7,24.2,4.8,23.9,4.6z
			 M31.2,4.6c-0.2,0.2-0.3-0.1-0.5,0c0,0.1,0,0.2,0.1,0.2c0.3,0.1,0.4,0.6,0.8,0.5c0.1-0.1-0.1-0.3,0-0.5
			C31.5,4.7,31.4,4.7,31.2,4.6z M16.6,6.8c-0.5,0.4-1,0.8-1.5,1.1c0.6,0.4,1.1,1,1.6,1.5l0.1,0.2c1.4-1.3,3.1-2.1,4.9-2.5
			c0.4,0,0.9-0.2,1.3-0.1c0-0.8-0.1-1.6,0-2.3C20.6,4.8,18.5,5.5,16.6,6.8z M34.7,6.1c-0.4,0.6-1.1,1.2-1.6,1.7l-0.3,0.1
			c0.2,0,0.2,0.2,0.3,0.4c0.6,0.3,0.8,1,1.3,1.3c0.3,0.6,1,1.1,1,1.8c0.7,1.6,1.2,3.2,1.2,5.1l-0.1,0.1c0.1,0,0.1,0,0.2-0.1l2.3,0
			C39,16.1,39,15.8,39,15.5C38.7,11.9,37.1,8.8,34.7,6.1z M12.3,6.1C10,8.7,8.5,11.6,8.1,15c-0.1,0.5,0,1-0.1,1.5
			c0.8-0.1,1.7-0.1,2.5,0l-0.1-0.3c0.2-2.6,1-4.9,2.4-7C13.3,8.8,13.5,8.3,14,8c-0.5-0.5-1.1-1.1-1.6-1.6L12.3,6.1z M23,7.8
			l-0.1,0.1c-2.1,0.1-3.9,1-5.4,2.3c0.6,0.4,1.2,1.1,1.7,1.6c0-0.1,0.1-0.1,0.1-0.2c0.8-0.6,1.6-1.1,2.5-1.3c0.4,0,0.8-0.2,1.2-0.1
			C22.9,9.5,22.9,8.6,23,7.8z M23.9,7.8L24,8l0,2.2l0.2,0c1.4,0.2,2.6,0.6,3.7,1.5l0.1,0.2c0.4-0.5,0.9-1,1.4-1.4l0.4-0.2l-0.2-0.1
			c-0.9-0.7-1.9-1.3-2.9-1.7C25.7,8.1,24.8,8,23.9,7.8z M14.5,8.4l0,0.2l-0.9,1.1c-1.4,2-2.1,4.3-2.3,6.8l2.2,0l0.2,0.1
			c-0.1-0.1-0.1-0.2-0.1-0.2c0.2-2.3,1-4.4,2.6-6.1C15.6,9.6,15,9.1,14.5,8.4z M30.1,10.7L30.1,10.7c-0.8,0.9-1.6,1.7-2.3,2.5
			c0,0.1,0.1,0.2,0.2,0.2c0-0.2,0.1-0.4,0.2-0.6c0.2-0.3,0.5-0.1,0.7,0c0.4-0.1,0.8,0.1,1.2,0.1c0.3,0.1,0.3,0.5,0.6,0.7
			c0.1,0.1,0,0.2-0.1,0.3c0.1,0.6,0.4-0.2,0.7,0c0.1,0,0.3,0,0.4,0.2c0,0.3,0.4,0.2,0.4,0.4c0,0.1-0.2,0.2-0.2,0.2
			c0.1,0.2-0.3,0.4-0.1,0.7c0.5,0.1,0.5-0.5,0.7-0.7c-0.1-0.4-0.2-0.9-0.5-1.2c-0.3-0.1-0.4-0.4-0.7-0.4c-0.5-0.2,0.1-0.5,0-0.8
			C30.9,11.6,30.5,11.2,30.1,10.7z M16.9,10.8c-1.1,1.3-1.9,2.8-2.2,4.5c-0.1,0.4,0,0.8-0.2,1.2c0.3-0.1,0.7-0.1,1,0
			c-0.2-0.1,0-0.3-0.1-0.5c0-0.2-0.1-0.5,0.1-0.6c0-0.3,0.3-0.5,0.4-0.8c0.1-0.3,0.5-0.1,0.7-0.3c0.1-0.1,0-0.2,0-0.3
			c0.2-0.2,0.4-0.2,0.6-0.3c0.1-0.2,0.3-0.4,0.5-0.6c0.5,0,0.5-0.7,1-0.7C18,12,17.4,11.3,16.9,10.8z M23.9,11.1
			c0.2,0.5,0,1.1,0.1,1.7l0.6,0.2c0.2-0.3,0.5-0.3,0.7-0.6c0.1-0.1,0.2,0,0.3,0.1c0,0.2,0,0.4-0.1,0.7c-0.2,0.4-0.7,0.5-1,0.8
			c0.2,0.1,0.3-0.1,0.4-0.1c0.2,0,0.4,0.2,0.5,0.4c0.1,0.1,0.3,0,0.4-0.1c0.1-0.7,0.9-0.6,1.2-1.2l-0.2,0.1c-0.1-0.1-0.2,0-0.2-0.2
			c0.1-0.1,0.3-0.3,0.5-0.4c-0.7-0.5-1.5-0.8-2.3-1.1C24.5,11.2,24.2,11.2,23.9,11.1z M19.5,12.8h0.2c0.2,0.2,0.5,0.2,0.7,0.4
			c0.1,0.1-0.1,0.1-0.1,0.3c0,0,0.1,0,0.1,0.1c0.2,0.1,0.1-0.1,0.2-0.2c0.2-0.2,0.2,0.2,0.4,0.2c0.1-0.1,0.3-0.1,0.4,0.1
			c0.1-0.1,0.4,0,0.4-0.2c0.3-0.3,0.1-0.7,0.5-0.9c0.1,0.1,0,0.2,0,0.3c0.3,0.1,0.5-0.2,0.7,0c-0.2-0.5-0.1-1.2-0.1-1.8
			C21.7,11.3,20.5,11.7,19.5,12.8z M23.5,14.1c-0.1-0.1-0.4-0.1-0.6,0c0.2,0.2,0.1,0.5,0.2,0.7c-0.2,0.4-0.7,0.5-1,0.6
			c-0.1,0.1-0.1,0.4-0.3,0.4c-0.1,0.2-0.4,0.3-0.3,0.5c-0.1,0.3-0.1,0.6-0.1,0.9c-0.5,0.3-0.3-0.4-0.6-0.5l-0.1,0.1
			c-0.1,0-0.2,0-0.2-0.1c-0.1,0-0.2,0-0.3,0c-0.1,0.2-0.3,0.3-0.2,0.6c0,0.1-0.3,0.1-0.3,0.3c0.3,0,0.6-0.1,0.8-0.1
			c0.2,0,0.3-0.1,0.5-0.1c0.1,0,0.1,0.1,0.1,0.2h0.1c0.1-0.1,0.2-0.2,0.1-0.4c0-0.2,0.2-0.2,0.3-0.2c0.1,0.1,0,0.2,0.1,0.2
			c0.4,0.1-0.1,0.4-0.1,0.6c-0.1,0.2,0,0.5-0.3,0.5c-0.1,0-0.1-0.1-0.1-0.1h0c0,0.1,0.1,0.3,0.2,0.4c0.2-0.2,0.2-0.5,0.6-0.5
			c0.2-0.2-0.1-0.5,0.2-0.6c0.4,0,0.9-0.2,1.2,0.2c0,0.1-0.1,0.2,0,0.3c-0.1,0.2-0.1,0.4-0.3,0.5c0,0.1,0,0.2-0.1,0.3
			c-0.1,0.5-0.7,0.3-1,0.4c0.5,0.4,1.1,0.5,1.8,0.5c0.4,0,0.2-0.4,0.4-0.6c0.1-0.6,0.6-0.2,1-0.3c0.1-0.2,0.2-0.5,0.3-0.8
			c-0.2-0.1-0.3-0.4-0.2-0.6c-0.1-0.2-0.1-0.5-0.4-0.6c0-0.1,0-0.1,0-0.2c0-0.2,0.2-0.2,0.2-0.4c-0.2-0.1-0.1-0.4-0.1-0.5
			c-0.3,0.1-0.3-0.3-0.6-0.4c-0.1-0.2-0.3-0.2-0.4-0.3c-0.4,0.2-0.5-0.3-0.7-0.4c0-0.1-0.1-0.2,0-0.3c0.1-0.1,0.3,0,0.5,0L23.5,14.1
			z M16.4,16.1c-0.7,0.2,0.1,0.7-0.1,1.1c-0.1,0.2-0.3,0-0.5,0.1l-0.1,0.4c-0.1,0.3-0.4,0.1-0.6,0.2c-0.1,0.2,0,0.3,0.1,0.5
			c-0.2,0.5,0.5,0.7,0.5,1.2c0.2,0.3,0,0.7,0.3,1c0.1,0.5-0.1,1.2,0.4,1.7l0.1,0.5c0.1,0.3-0.4,0.3-0.4,0.6c0.1,0,0.1,0.1,0.1,0.1v0
			c0.6-0.7,1.4-1.5,2.1-2.1L18.1,21c-0.6-0.9-1-1.8-1.3-2.8l-0.2-0.1c0,0.3-0.1,0.5-0.1,0.7l-0.1,0.1c-0.2,0-0.3-0.1-0.4-0.2
			c0-0.1-0.1-0.2,0-0.3c0.1,0,0.1,0,0.2,0.1c0.1-0.1,0-0.2,0.1-0.3c0-0.2-0.1-0.4,0-0.5c0.2,0,0.3,0.2,0.3,0.3
			c0.2,0,0.3-0.1,0.4-0.1c0-0.1,0.2-0.3,0-0.4c0.1-0.3,0-0.7,0-1C16.9,16.1,16.6,16.1,16.4,16.1z M31.6,16.4c-0.1,0-0.2,0-0.2,0
			C31.5,16.4,31.6,16.4,31.6,16.4z M31.1,17.2l0.3,0.3c0.3,0.2,0.1,0.5,0.4,0.7c0.3,0.2,0.4,0.5,0.6,0.8c0.1-0.1,0.1-0.2,0.1-0.2
			c0.1-0.4,0.1-1,0.2-1.4C32.1,17.3,31.6,17.4,31.1,17.2z M36.7,17.3l-0.1-0.1l0.1,0.2c-0.1,2.7-1,5.1-2.6,7.2
			c-0.3,0.4-0.6,0.8-1,1.1c0.6,0.5,1.3,1.2,1.8,1.8l0.1-0.1c2.5-2.8,3.9-6.1,4.1-10l0.1-0.2L39,17.3L36.7,17.3z M33.4,17.3
			c0,0.5-0.1,1-0.1,1.5l0.3,0.3c0.1,0.1,0,0.3-0.1,0.4c-0.1,0.1-0.3,0.1-0.4,0c-0.3,1.1-0.7,2.2-1.4,3.1c-0.3,0.3-0.5,0.8-0.9,1
			l0.7,0.7c0,0,0-0.1,0-0.2c0-0.1,0-0.2,0.2-0.2c0.4,0,0.4,0.4,0.6,0.6c0,0.3,0.2,0.6,0.1,0.8c2.1-2.2,3.1-4.8,3.3-7.8l0.1-0.1
			c-0.7,0.1-1.5,0-2.3,0L33.4,17.3z M14.4,17.3l0.1,0.2c0,0.5,0.2,1.1,0.1,1.6c0.1-0.2,0.1-0.4,0.3-0.5c0-0.1-0.2-0.2-0.2-0.3
			c0.2-0.3,0-0.8,0.4-0.9C14.9,17.4,14.7,17.5,14.4,17.3z M10.5,17.3l-0.2,0.1l-2.3,0c0.1,2.6,0.8,5,2,7.2c0.6,1.1,1.4,2,2.2,3
			l1.6-1.7l0.2-0.1c-0.3-0.2-0.5-0.5-0.8-0.8c-0.3-0.1-0.5-0.3-0.7-0.5c-0.1-0.1,0-0.3-0.1-0.3l-0.1,0.1c-0.3,0.1-0.4-0.2-0.6-0.3
			c-0.3-0.1-0.1-0.6-0.5-0.5c-0.1,0-0.2-0.2-0.3-0.2c-0.3,0-0.4-0.3-0.6-0.5c0,0.1,0,0.2-0.1,0.2c-0.3,0.1-0.4-0.3-0.7-0.5
			c-0.1,0-0.1,0.1-0.2,0.1c-0.2-0.2-0.3-0.4-0.3-0.7c-0.3-0.3-0.1-0.8-0.1-1.1c0-0.1,0.2-0.2,0.2-0.3c0.1-0.2,0.3-0.2,0.4-0.2
			c0.1,0,0.1,0.1,0.2,0.2c0.1-0.1,0.3,0,0.3-0.2c0.1-0.1,0.3-0.2,0.5-0.2c0.1,0.2,0.2,0.4,0.4,0.5l-0.1-0.2
			c-0.2-0.8-0.4-1.6-0.4-2.5c0,0-0.1-0.1,0-0.1l0,0C10.5,17.6,10.5,17.4,10.5,17.3z M13.7,17.3l-0.2,0.1c-0.8,0-1.5,0-2.3-0.1
			l0.1,0.1l0.2,1.5c0.1,0.6,0.3,1.1,0.3,1.7c0.1-0.1,0-0.4,0.3-0.4c-0.1-0.2,0.2-0.3,0-0.5c0.1-0.4,0.1-0.8,0.5-1.1
			c0.4,0,0.4-0.6,0.9-0.6c0.2,0,0.3,0.3,0.4,0.4C13.6,18.2,13.6,17.7,13.7,17.3z M17.9,18.3c0.2,0.4,0.4,0.9,0.6,1.3
			c0.1,0.4,0.5,0.7,0.6,1c0.2-0.3,0.5-0.5,0.7-0.8c0-0.1,0-0.2-0.1-0.3c-0.1-0.2,0-0.4-0.1-0.6c-0.2,0.1,0.1,0.3,0,0.4
			c-0.1,0.1-0.2,0-0.2-0.1c-0.2,0-0.3-0.2-0.4-0.4c0.2-0.1,0-0.1-0.1-0.2c-0.1,0-0.1,0-0.2,0c0,0-0.1,0-0.1,0
			C18.6,18.3,18.1,18.6,17.9,18.3z M20.4,19c0,0.2-0.2,0.4-0.3,0.5l0,0c0.2-0.1,0.3-0.4,0.6-0.4L20.4,19z M26.9,19.6
			c0,0.1,0,0.3,0.1,0.4c0.3,0,0.2,0.4,0.5,0.4c0.2,0,0-0.2,0.1-0.3c0-0.2-0.3-0.3-0.4-0.4c0,0,0-0.1,0-0.1
			C27,19.5,26.9,19.5,26.9,19.6z M31.5,19.6c-0.2,0-0.5,0.1-0.7,0c-0.1-0.1-0.1,0-0.1,0.1c-0.1,0.1-0.2,0.3-0.4,0.2
			c-0.1-0.1-0.1-0.2-0.2-0.3c0,0.1,0,0.2,0,0.3c-0.2,0.2-0.2,0.3-0.4,0.5c-0.2,0.2-0.4,0.1-0.6,0.3c0,0.4-0.5,0.3-0.7,0.4
			c0,0,0,0.1,0.1,0.1c0.1,0,0.3,0,0.4-0.1c0.3,0.1,0.3-0.3,0.5-0.5c0.2,0,0.3-0.2,0.5-0.1c0.2,0.2,0.2,0.5,0.2,0.8
			c-0.2,0.2-0.1,0.5-0.2,0.7c0,0.3-0.3,0.4-0.3,0.7c-0.1,0.1-0.3,0.1-0.4,0.1c-0.6-0.2-1.3-0.4-2-0.5c-0.1,0-0.1,0.1-0.1,0.2
			c0.3,0.2,0.7,0.2,1,0.3c0.3,0.1,0.5,0.4,0.8,0.3c0.3-0.2,0.8,0.1,1-0.2c0-0.3,0.2-0.5,0.4-0.8l0.1,0c0.2,0.2,0.2,0.4,0.2,0.6
			c0.2-0.2,0.4-0.5,0.6-0.8c0.5-0.8,1-1.6,1.2-2.5C31.9,19.5,31.7,19.6,31.5,19.6z M21.2,19.6c-0.4,0.6-1,1.1-1.5,1.6
			c0.9,0.7,1.9,1.2,2.9,1.4c0.1-0.2,0-0.5,0.1-0.7c0.1-0.2,0.3-0.2,0.5-0.1c0.1,0,0.2-0.1,0.1-0.2c-0.2,0-0.1-0.3-0.2-0.5
			c0-0.1,0.1-0.1,0.1-0.2c-0.2-0.1,0.1-0.3-0.1-0.4c0.1,0,0.1-0.1,0.2-0.1c-0.5,0.3-1.1-0.1-1.5-0.3C21.6,20,21.3,19.9,21.2,19.6z
			 M25.9,21.1c0,0.1-0.1,0.2,0,0.2c0.2-0.2,0.6-0.2,0.6-0.5C26.3,20.8,26.1,20.9,25.9,21.1z M26.9,21.7c-0.3,0-0.4,0.2-0.6,0.4
			c-0.2,0.1-0.3-0.2-0.5-0.2c0,0,0,0.1,0.1,0.1c0,0.1,0.1,0.2,0,0.2c-0.3,0.3-0.4-0.1-0.7-0.1v0.1c0,0.1,0,0.1-0.1,0.1
			c-0.2-0.3-0.5-0.2-0.7-0.4c-0.1-0.1-0.2,0-0.3,0.1c-0.1,0.1-0.3,0-0.3,0.2c-0.2,0.1-0.2,0.3-0.4,0.4c-0.3,0-0.4,0.2-0.6,0.2
			c0,0,0,0.1,0.1,0.1c0.1,0.1,0.3,0.1,0.5,0.1c0.2-0.4,0.7-0.1,1-0.2c0.2,0,0.1,0.3,0.2,0.3c0.3-0.1,0.6,0.3,0.9,0
			c0-0.4,0.4-0.4,0.7-0.4C26.6,22.5,27,22.2,26.9,21.7L26.9,21.7z M19,21.9c-0.5,0.6-1.1,1.2-1.6,1.7c0.3,0,0.4,0.3,0.6,0.4
			c1.2,1,2.7,1.5,4.2,1.9l-0.4-0.2c-0.3-0.3-0.7-0.7-0.7-1.2c0.3-0.1,0.3-0.4,0.4-0.6c0.2-0.3,0.5-0.4,0.9-0.5
			c-0.8,0.3-1.5-0.3-2.2-0.6C19.7,22.5,19.2,22.3,19,21.9z M30.3,24.2L30.3,24c-0.1,0.2-0.2,0.3-0.4,0.5c0,0.1,0,0.3,0.1,0.4
			c0.3,0.1,0.7,0.3,0.8,0.7c-0.1,0.4-0.8,0.7-0.4,1.1c0.1,0.2-0.2,0.3-0.1,0.4l0.1-0.2c0.5-0.4,1-0.7,1.5-1.2h0.1
			c-0.1,0-0.2,0.1-0.3,0c-0.2-0.1-0.3-0.3-0.3-0.5L30.3,24.2z M17.2,24.5L17.2,24.5L17.2,24.5L17.2,24.5z M17.5,24.8
			c-0.1-0.1-0.2-0.1-0.2-0.3L17.5,24.8z M17.5,24.9c0,0.2,0.3,0.3,0.2,0.6c-0.1,0.2-0.4,0.2-0.7,0.2c-0.5-0.1-0.8,0.3-1.2,0.3
			c-0.4,0.1-0.5-0.4-0.9-0.3c2.3,2,4.9,3.2,7.9,3.4l0.2,0.2L23,29v-2.2l-0.2,0.1C20.8,26.8,19.1,26.1,17.5,24.9z M32.6,26.4l0-0.2
			c-0.2,0.4-0.7,0.7-1.1,1.1c-0.5,0.5-1.4,0.6-1.7,1.4c-0.3,0.3-0.4,0.7-0.8,0.8c-0.1,0.4-0.6,0.4-0.8,0.7c-0.7,0.6-1.1-0.4-1.7-0.5
			l-1.2,0.2c-0.4,0-0.9,0.2-1.3,0c0.1,0.8,0.1,1.7,0,2.6l0.2-0.1c3.9-0.2,7.3-1.7,10.2-4.3L32.6,26.4z M14.5,26.4L14.5,26.4
			l-1.7,1.8c2.5,2.2,5.4,3.6,8.7,4.1c0.5,0.1,1.1,0,1.6,0.2L23,32.3v-2.2l0.1-0.1L22.8,30C19.6,29.8,16.8,28.6,14.5,26.4z M23.8,27
			l0.1,0.2c0,0.7,0.1,1.4,0,2c0.6-0.2,1.3-0.2,2-0.3c-0.1,0-0.3-0.1-0.4-0.2c-0.4,0-0.6-0.4-0.7-0.7c-0.1-0.2,0.1-0.4,0.2-0.6
			c-0.2-0.3-0.7-0.1-1-0.2C24,27.1,23.9,27,23.8,27z"/>
		<g>
			<path class="st0" d="M38.8,3.6C40,4.6,40.5,6,40.9,7.4l0.2,0.5c-1.7-1.2-3.3-2.9-4.4-4.7l-1.4-1.4C36.5,2.3,37.8,2.6,38.8,3.6z"
				/>
			<path class="st0" d="M8.5,5.7c-0.8,1-1.8,1.6-2.7,2.5C6.3,7.2,6.3,5.9,7,5c1-1.7,2.8-2.3,4.4-3C10.2,3.1,9.4,4.4,8.5,5.7z"/>
			<path class="st0" d="M43,7.5c0.4,1.7-0.2,3.4,0.2,5.1l0,0c-0.9-1.8-2.9-2.7-4.3-4.2c-0.8-0.9-1.1-1.9-1.3-3.1
				c0.8,1.9,2.9,2.3,4.1,3.9c0.4,0.4,0.5,0.9,0.8,1.3l0,0c-0.7-1.5-0.9-3.2-1.4-4.7c-0.2-0.7-0.7-1.4-1.4-1.8
				C41.3,4.3,42.7,6,43,7.5z"/>
			<path class="st0" d="M7,4.3C5.4,5.4,5.5,7.4,5,9c-0.2,0.6-0.4,1.2-0.6,1.8l0,0c0.3-0.7,0.7-1.4,1.3-2c1.1-1.1,2.8-1.7,3.4-3.3
				c0,2.2-1.8,3.9-3.6,5.1c-0.7,0.6-1.4,1.3-1.8,2.2c0-0.5,0.1-1.1,0-1.7c-0.2-1.9-0.3-4.1,1-5.5C5.5,5,6.2,4.5,7,4.3z"/>
			<path class="st0" d="M44.1,7.9c1.4,2,1.8,5.1,0.7,7.3c-0.4,1-0.7,2-0.8,3c-0.1-0.2-0.1-0.4-0.2-0.6c-0.6-2.2-2.6-3.8-3.5-5.8
				c-0.3-0.7-0.5-1.4-0.6-2.1c0.9,1.7,3.2,2.6,3.8,4.4c0.3,0.5,0.2,1.1,0.4,1.6c0,0,0.1,0,0.1-0.1c-0.3-1.9-0.2-3.9,0.1-5.8
				c0-1-0.1-2-0.7-2.8C43.6,7.1,43.8,7.5,44.1,7.9z"/>
			<path class="st0" d="M3.6,7.2c-1.2,1.9-0.2,4.3-0.3,6.4l-0.2,2.2c0,0,0,0.1,0.1,0.1c0.1-0.2,0.1-0.5,0.1-0.8
				c0.3-1.8,1.8-3,3.2-4.2c0.3-0.3,0.5-0.6,0.7-1c-0.1,0.9-0.4,1.8-0.7,2.6c-1,2-3,3.7-3.3,6c-0.2-2.2-1.7-3.9-1.5-6.3
				C1.6,10.3,2.4,8.7,3.6,7.2C3.5,7.3,3.5,7.2,3.6,7.2z"/>
			<path class="st0" d="M45.4,20.5c-0.9,1.2-1.9,2.3-2.7,3.6c0.1-1,0.2-2.2-0.2-3.1c-0.7-2-1.2-4-1.4-6.2l0-0.8
				c0.5,2.2,2.7,3.8,2.6,6.3c0,0.6-0.1,1.1-0.3,1.7l0,0l0.1-0.1c0.3-1.2,0.5-2.5,1-3.7c0.7-1.7,1.6-3.3,1.3-5.3
				C46.9,15.2,46.6,18.3,45.4,20.5z"/>
			<path class="st0" d="M2.9,19.8c0.2,0.8,0.3,1.7,0.6,2.5c0,0,0.1,0,0.1,0c-0.8-2.3,0.4-4.5,1.6-6.4c0.3-0.5,0.5-1.1,0.6-1.6
				c0.1,1.1-0.1,2.3-0.3,3.4c-0.3,1.4-0.7,2.7-1.1,4.1c-0.3,0.8-0.2,1.8-0.1,2.7l-0.1-0.1c-0.9-1.6-2.6-2.9-3.2-4.7
				c-0.4-1.4-0.7-3.1-0.4-4.6c0.1-0.6,0.2-1.2,0.5-1.8C0.7,15.7,2.4,17.6,2.9,19.8z"/>
			<path class="st0" d="M42,24.4c-0.1,1.1-0.4,2.1-1,3h0.1c0.8-1,1.4-2.1,2.3-3.1c1.4-1.4,2.9-2.8,3-4.7c0.5,3.2-1.3,5.9-3.9,7.7
				c-1.1,0.7-2.2,1.4-3.2,2.2v-0.1c1.6-2.7,0.8-6.3,1.8-9.2l0.4-1C41.3,21,42.1,22.6,42,24.4z"/>
			<path class="st0" d="M7.1,28c0.2,0.6,0.5,1.1,0.7,1.7c-2.4-1.7-5.7-3.2-6.8-6.3c-0.5-1-0.5-2.3-0.4-3.5C0.8,22.6,3.7,24,5,26.3
				c0.3,0.5,0.6,1,1,1.3c-0.1-0.3-0.3-0.5-0.4-0.8c-0.5-0.9-0.6-2.1-0.5-3.2c0.1-1.4,0.7-2.7,0.5-4.1C6.8,22.1,6.4,25.2,7.1,28z"/>
			<path class="st0" d="M38.4,30c-0.4,0.7-1,1.4-1.7,2c0.2,0,0.4-0.2,0.6-0.3c1.8-1.7,4-2.2,5.9-3.7c0.8-0.6,1.4-1.4,1.8-2.2
				c-0.4,2.9-3.2,5.6-5.9,6.5c-1.4,0.4-2.9,0.5-4.3,1c2.3-2,2.2-5,3.7-7.4c0.5-0.7,0.9-1.4,1.5-2C39.1,25.7,39.5,28.2,38.4,30z"/>
			<path class="st0" d="M9.3,27.6c0.8,2,1.1,4.3,3,5.8c-2-0.7-4.4-0.5-6.2-1.7c-2-1.2-3.7-3.3-4.1-5.5c1.4,3.1,4.7,3.3,7,5.2
				c0.4,0.4,0.9,0.7,1.3,0.9l0,0c-0.5-0.5-1.1-1-1.5-1.6c-1.3-1.8-0.9-4.4-1.9-6.4C8,25.2,8.8,26.3,9.3,27.6z"/>
			<path class="st0" d="M33.5,33.5c-0.5,0.3-1.1,0.4-1.6,0.6c0.7,0,1.4-0.2,2.1-0.3c2.7-0.4,5.8,0,7.7-2.3c-0.7,1.6-2.5,2.9-4.1,3.5
				c-2.7,1-5.5-0.2-8.1-0.7l-0.5-0.1v0c1.3-0.3,2.5-0.7,3.5-1.6c1.5-1.4,2.8-2.9,4.4-4C35.6,30.3,35.5,32.5,33.5,33.5z"/>
			<path class="st0" d="M14.6,32.8c1,0.9,2.3,1.3,3.6,1.6c-0.3,0.1-0.7,0.1-1.1,0.2c-2.4,0.6-5,1.5-7.5,0.7
				c-1.6-0.5-3.3-1.8-4.1-3.4c2.2,2.5,5.7,1.6,8.6,2.3c0.4,0.1,0.8,0.2,1.2,0.2c-0.3-0.2-0.8-0.2-1.2-0.4c-2.3-0.8-2.6-3.3-3.8-4.9
				C11.9,30,13.2,31.4,14.6,32.8z"/>
			<path class="st0" d="M32.3,36.1c1.8,0.7,4,0.5,5.5-0.6c-0.8,1-1.8,1.7-2.9,2.1c-2.4,0.9-5,0-6.9-1.5c-0.8-0.5-1.5-1.2-2.5-1.1
				c-0.4,0-0.7,0-1,0.1c1.9,0.9,3.6,2.1,5.2,3.6c-0.3,0.3-0.6,0.6-0.9,0.8c-1.5-1.6-3.2-3.2-5.1-4.1c-0.4,0-0.7,0.3-1.1,0.4
				c-1.5,1-3,2.2-4.2,3.7l-1-0.8c1.6-1.6,3.3-2.8,5.2-3.7c-1.9-0.6-3.1,1-4.5,1.8c-1.6,1.1-4,1.7-6,0.9c-1.1-0.4-2.1-1-2.9-2
				c1.6,1.1,3.9,1.2,5.7,0.5c2.4-1,4.9-2.3,7.7-1.7c0.4,0,0.9,0.5,1.3,0.1c2.1-0.6,4.6-0.2,6.4,0.8L32.3,36.1z"/>
		</g>
	</g>
	<g>
		<path class="st0" d="M53.4,6.2h2.4v8c0,1.9,0.1,4,3.2,4c3.1,0,3.2-2.1,3.2-4v-8h2.4V15c0,3.5-2.3,5.3-5.7,5.3
			c-3.4,0-5.6-1.8-5.6-5.3V6.2z"/>
		<path class="st0" d="M67,10h2.1v1.5l0,0c0.7-1.1,1.8-1.8,3.1-1.8c2.2,0,3.5,1.2,3.5,3.4v6.8h-2.2v-6.3c0-1.6-0.7-2.2-1.9-2.2
			c-1.5,0-2.4,1.2-2.4,2.6v5.9H67V10z"/>
		<path class="st0" d="M78,6.2h2.2v2.1H78V6.2z M78,10h2.2v10H78V10z"/>
		<path class="st0" d="M81.5,10h1.7V7h2.2v3h2v1.6h-2v5.3c0,0.9,0.1,1.4,1.1,1.4c0.3,0,0.6,0,0.9-0.1v1.7c-0.5,0-0.9,0.1-1.4,0.1
			c-2.3,0-2.7-0.9-2.8-2.5v-5.9h-1.7V10z"/>
		<path class="st0" d="M90.3,15.5c0,1.6,0.8,3,2.7,3c1.3,0,2-0.6,2.4-1.7h2.1C97,19,95.2,20.2,93,20.2c-3.1,0-4.9-2.2-4.9-5.2
			c0-2.8,1.9-5.3,4.8-5.3c3.1,0,5.1,2.8,4.7,5.8H90.3z M95.5,14.1c-0.1-1.4-1-2.6-2.5-2.6c-1.5,0-2.6,1.2-2.6,2.6H95.5z"/>
		<path class="st0" d="M108.8,19.9h-2.1v-1.3h0c-0.6,1.1-1.8,1.6-3.1,1.6c-3.1,0-4.7-2.3-4.7-5.3c0-3.6,2.1-5.2,4.3-5.2
			c1.3,0,2.6,0.5,3.3,1.6h0V6.2h2.2V19.9z M103.8,18.5c2,0,2.8-1.8,2.8-3.5c0-2.2-1.1-3.5-2.8-3.5c-2.1,0-2.8,1.8-2.8,3.6
			C101.1,16.8,101.9,18.5,103.8,18.5z"/>
		<path class="st0" d="M116.7,6.2h2.5l6.3,10.1h0V6.2h2.3v13.8h-2.5l-6.3-10.1H119v10.1h-2.3V6.2z"/>
		<path class="st0" d="M138.7,17.7c0,0.5,0.1,0.8,0.5,0.8c0.1,0,0.3,0,0.5,0V20c-0.3,0.1-1,0.3-1.4,0.3c-0.9,0-1.5-0.3-1.7-1.2
			c-0.9,0.8-2.3,1.2-3.5,1.2c-1.8,0-3.4-1-3.4-2.9c0-2.5,2-2.9,3.8-3.1c1.6-0.3,3-0.1,3-1.4c0-1.1-1.2-1.3-2.1-1.3
			c-1.2,0-2.1,0.5-2.2,1.6h-2.2c0.2-2.6,2.3-3.3,4.5-3.3c1.9,0,4,0.8,4,2.9V17.7z M136.5,15c-0.7,0.4-1.7,0.4-2.7,0.6
			c-0.9,0.2-1.8,0.5-1.8,1.7c0,1,1.3,1.3,2,1.3c1,0,2.5-0.5,2.5-1.9V15z"/>
		<path class="st0" d="M140,10h1.7V7h2.2v3h2v1.6h-2v5.3c0,0.9,0.1,1.4,1.1,1.4c0.3,0,0.6,0,0.9-0.1v1.7c-0.5,0-0.9,0.1-1.4,0.1
			c-2.3,0-2.7-0.9-2.8-2.5v-5.9H140V10z"/>
		<path class="st0" d="M147.4,6.2h2.2v2.1h-2.2V6.2z M147.4,10h2.2v10h-2.2V10z"/>
		<path class="st0" d="M151.3,15c0-3,1.8-5.2,5-5.2c3.2,0,5,2.2,5,5.2c0,3.1-1.8,5.3-5,5.3C153.2,20.2,151.3,18,151.3,15z M159.2,15
			c0-1.7-0.9-3.5-2.8-3.5c-2,0-2.8,1.8-2.8,3.5c0,1.7,0.9,3.5,2.8,3.5C158.3,18.5,159.2,16.7,159.2,15z"/>
		<path class="st0" d="M163.2,10h2.1v1.5l0,0c0.7-1.1,1.8-1.8,3.1-1.8c2.2,0,3.5,1.2,3.5,3.4v6.8h-2.2v-6.3c0-1.6-0.7-2.2-1.9-2.2
			c-1.5,0-2.4,1.2-2.4,2.6v5.9h-2.2V10z"/>
		<path class="st0" d="M175.8,16.7c0.1,1.3,1.1,1.7,2.3,1.7c0.8,0,2.3-0.2,2.2-1.3c-0.1-1.2-1.7-1.3-3.3-1.7c-1.6-0.3-3.2-0.9-3.2-3
			c0-2.2,2.4-2.9,4.2-2.9c2,0,3.9,0.8,4.2,3.1h-2.3c-0.2-1-1.1-1.3-2-1.3c-0.6,0-1.8,0.2-1.8,1c0,1.1,1.6,1.2,3.2,1.6
			c1.6,0.4,3.2,0.9,3.2,2.9c0,2.4-2.4,3.2-4.5,3.2c-2.5,0-4.4-1.1-4.4-3.5H175.8z"/>
		<path class="st0" d="M53,27.7h1.8v5.9c0,1.4,0.1,2.9,2.4,2.9c2.3,0,2.4-1.6,2.4-2.9v-5.9h1.8v6.4c0,2.6-1.6,3.9-4.1,3.9
			c-2.5,0-4.1-1.3-4.1-3.9V27.7z"/>
		<path class="st0" d="M63.3,27.7h1.9l4.6,7.4h0v-7.4h1.7v10h-1.9L65,30.4h0v7.4h-1.7V27.7z"/>
		<path class="st0" d="M80.3,30.9c-0.3-1.2-1-2-2.5-2c-2.2,0-3.1,1.9-3.1,3.8c0,1.9,0.9,3.8,3.1,3.8c1.6,0,2.4-1.2,2.6-2.6h1.7
			C82,36.3,80.3,38,77.8,38c-3,0-4.8-2.4-4.8-5.3c0-2.9,1.8-5.3,4.8-5.3c2.3,0,4.1,1.3,4.3,3.4H80.3z"/>
		<path class="st0" d="M83.8,27.7h1.8v10h-1.8V27.7z"/>
		<path class="st0" d="M86.8,27.7h8.1v1.5h-3.2v8.5H90v-8.5h-3.2V27.7z"/>
		<path class="st0" d="M96.1,27.7h4.8c2.2,0,3.3,1,3.3,2.7c0,1.9-1.3,2.4-1.7,2.5v0c0.6,0.1,1.5,0.5,1.5,2.1c0,1.2,0.2,2.2,0.5,2.6
			h-1.9c-0.3-0.4-0.3-1-0.3-1.5c0-1.8-0.4-2.7-2-2.7h-2.6v4.1h-1.8V27.7z M97.9,32.3h2.9c1.1,0,1.7-0.5,1.7-1.6
			c0-1.3-0.8-1.5-1.7-1.5h-2.9V32.3z"/>
		<path class="st0" d="M108.8,27.7h1.9l3.9,10h-1.9l-0.9-2.7h-4l-0.9,2.7h-1.8L108.8,27.7z M108.2,33.8h3.1l-1.5-4.3h0L108.2,33.8z"
			/>
		<path class="st0" d="M115.5,27.7h1.8v8.5h5.1v1.5h-6.9V27.7z"/>
	</g>
</g>
</svg>
