<?xml version="1.0" encoding="utf-8"?>
<!-- Generator: Adobe Illustrator 21.0.0, SVG Export Plug-In . SVG Version: 6.00 Build 0)  -->
<svg version="1.1" id="Layer_1" width="112" height="40" xmlns="http://www.w3.org/2000/svg" xmlns:xlink="http://www.w3.org/1999/xlink" x="0px" y="0px"
	 viewBox="0 0 112 40" style="enable-background:new 0 0 112 40;" xml:space="preserve">
<style type="text/css">
	.st0{fill:#EFDFC8;}
	.st1{fill:#A51D35;}
	.st2{fill:#221F1F;}
	.st3{fill:#FFFFFF;}
</style>
<g>
	<g>
		<rect x="0.2" y="0" class="st0" width="79.1" height="31.7"/>
		<rect x="79.3" y="0" class="st1" width="32.3" height="31.7"/>
		<g>
			<path class="st2" d="M4.6,15.6l0.9-6.3c0-0.1,0-0.2,0-0.3c0-0.1,0-0.2,0-0.2c0-0.1,0-0.1,0-0.2c0-0.1,0-0.1,0-0.1
				c0,0,0-0.1,0-0.1c0,0,0-0.1-0.1-0.1c0,0-0.1-0.1-0.1-0.1c0,0-0.1-0.1-0.1-0.1C5.1,7.9,5.1,7.9,5,7.9h2.4l2.9,6.7l2.5-6.7h2.5
				c-0.4,0.2-0.6,0.4-0.6,0.8c0,0,0,0.1,0,0.1c0,0.1,0,0.1,0,0.1l0.9,6.6c0.2,0.8,0.4,1.2,0.9,1.4h-2.9c0.4-0.1,0.7-0.5,0.7-1.2
				v-0.2l-0.8-6.2l-3,7.7c-0.4-0.1-0.8-0.6-1.2-1.4L6.5,9.4l-0.9,6.2c0,0.3,0,0.6,0.1,0.8c0.1,0.2,0.3,0.4,0.5,0.6H3.8
				c0.2-0.1,0.4-0.4,0.6-0.7C4.5,16,4.6,15.8,4.6,15.6z"/>
			<path class="st2" d="M18.2,16v-5.3c0-0.5-0.2-0.8-0.5-1h2.2c-0.2,0.1-0.3,0.3-0.4,0.4c-0.1,0.2-0.1,0.4-0.1,0.7V16
				c0,0.2,0.1,0.4,0.2,0.6c0.1,0.2,0.3,0.3,0.5,0.4h-2.4c0.1,0,0.3-0.2,0.4-0.3C18.1,16.5,18.2,16.3,18.2,16z"/>
			<path class="st2" d="M21.8,15.9v-5c0-0.2,0-0.4,0-0.5c0-0.1-0.1-0.3-0.1-0.4c-0.1-0.1-0.1-0.2-0.2-0.2c0,0-0.1-0.1-0.2-0.1
				c-0.1-0.1-0.2-0.1-0.2-0.1h1.6l4.4,5.6v-4.4c0-0.7-0.2-1.1-0.7-1.2h2.2c0,0-0.1,0.1-0.2,0.1c-0.1,0.1-0.2,0.1-0.2,0.2
				c0,0-0.1,0.1-0.1,0.3C28,10.4,28,10.6,28,10.8v6.5c-0.2,0-0.4-0.1-0.6-0.3c-0.3-0.2-0.4-0.3-0.6-0.5l-4.2-5.3v4.6
				c0,0.3,0,0.5,0.1,0.7c0.1,0.2,0.2,0.3,0.5,0.4h-2.1c0,0,0.1-0.1,0.2-0.1c0.1-0.1,0.1-0.1,0.2-0.1c0,0,0.1-0.1,0.1-0.1
				c0.1-0.1,0.1-0.1,0.1-0.2c0-0.1,0-0.1,0.1-0.2C21.8,16.1,21.8,16,21.8,15.9z"/>
			<path class="st2" d="M30.5,16v-5.3c0-0.5-0.2-0.8-0.5-1h2.2c-0.2,0.1-0.3,0.3-0.4,0.4c-0.1,0.2-0.1,0.4-0.1,0.7V16
				c0,0.2,0.1,0.4,0.2,0.6c0.1,0.2,0.3,0.3,0.5,0.4h-2.4c0.1,0,0.3-0.2,0.4-0.3C30.4,16.5,30.5,16.3,30.5,16z"/>
			<path class="st2" d="M33.5,11.6c0-0.7,0.2-1.2,0.7-1.6c0.5-0.4,1.1-0.5,1.8-0.5h0.3c0.8,0,1.3,0.1,1.6,0.3V11
				c-0.2-0.2-0.5-0.3-0.9-0.5c-0.4-0.1-0.7-0.2-1-0.2c-0.6,0-1,0.2-1.2,0.6c-0.1,0.2-0.1,0.3-0.1,0.4c0,0.2,0.1,0.4,0.4,0.7
				c0.2,0.2,0.5,0.4,0.9,0.6l1.2,0.6c0.2,0.1,0.4,0.2,0.6,0.4c0.2,0.1,0.4,0.3,0.6,0.6c0.2,0.3,0.3,0.5,0.3,0.8
				c0,0.7-0.3,1.3-0.9,1.7c-0.6,0.4-1.3,0.6-2.2,0.6c-0.6,0-1.3-0.1-1.9-0.3l-0.3-1.4c0.7,0.6,1.4,0.9,2.3,0.9
				c0.4,0,0.8-0.1,1.1-0.2c0.3-0.2,0.5-0.4,0.6-0.6c0-0.1,0-0.2,0-0.3c0-0.4-0.4-0.9-1.1-1.3l-1.2-0.6c-0.3-0.2-0.7-0.4-1-0.7
				C33.7,12.3,33.5,12,33.5,11.6z"/>
			<path class="st2" d="M41.5,16.2v-5.7h-0.9c-0.6,0-1.1,0.1-1.5,0.4l0.4-1.4c0.1,0.1,0.3,0.1,0.6,0.1h4.3c0.2,0,0.4,0,0.6-0.1
				l-0.4,1.4c0-0.1-0.2-0.2-0.3-0.3c-0.2-0.1-0.4-0.1-0.6-0.1h-1v5.7c0,0.1,0,0.1,0,0.2c0,0.1,0,0.1,0.1,0.2c0,0,0.1,0.1,0.1,0.1
				c0.1,0.1,0.1,0.1,0.1,0.1c0,0,0.1,0.1,0.1,0.1c0.1,0.1,0.1,0.1,0.1,0.1H41C41.3,16.8,41.5,16.5,41.5,16.2z"/>
			<path class="st2" d="M46.3,16.1v-5.4c0-0.2,0-0.3,0-0.5c0-0.1,0-0.2-0.1-0.3c-0.1-0.1-0.1-0.1-0.1-0.2c0,0-0.1-0.1-0.2-0.1
				l-0.1-0.1h2.4c0.8,0,1.4,0.1,1.9,0.4c0.5,0.3,0.7,0.8,0.7,1.4c0,0.5-0.2,1-0.5,1.3c-0.3,0.4-0.7,0.6-1.2,0.7
				c0.1,0.2,0.4,0.4,0.6,0.8c0.3,0.4,0.5,0.7,0.7,0.9c0.2,0.2,0.4,0.4,0.6,0.7c0.2,0.3,0.5,0.5,0.7,0.7c0.2,0.2,0.5,0.3,0.7,0.5
				h-1.2c-0.3,0-0.5,0-0.7-0.1c-0.2-0.1-0.4-0.3-0.6-0.5l-2.3-3c0.7-0.3,1.2-0.5,1.5-0.7c0.3-0.2,0.4-0.5,0.4-0.8v-0.2
				c0-0.4-0.1-0.6-0.4-0.8c-0.2-0.2-0.6-0.3-1-0.3c-0.2,0-0.4,0-0.7,0.1V16c0,0.5,0.2,0.8,0.5,0.9h-2.2
				C46.1,16.9,46.3,16.6,46.3,16.1z"/>
			<path class="st2" d="M54.5,16.1v-2.3l-2-3.3c-0.1-0.3-0.5-0.6-0.9-0.9h1c0.3,0,0.5,0.1,0.7,0.2c0.1,0.1,0.3,0.3,0.4,0.5l1.5,2.5
				l1.5-2.2c0.1-0.1,0.1-0.2,0.1-0.4c0-0.2,0-0.3-0.1-0.4c-0.1-0.1-0.2-0.2-0.3-0.2h2.2l-2.9,4.2V16c0,0.4,0.2,0.7,0.6,0.9H54
				C54.4,16.8,54.5,16.5,54.5,16.1z"/>
		</g>
		<g>
			<path class="st2" d="M62.2,13.5c0-0.4,0.1-0.8,0.2-1.3c0.1-0.4,0.4-0.8,0.7-1.2c0.3-0.4,0.7-0.7,1.3-1c0.6-0.3,1.2-0.4,1.9-0.4
				c1.2,0,2.1,0.3,2.9,1c0.8,0.7,1.2,1.6,1.2,2.7c0,0.4-0.1,0.9-0.2,1.3c-0.2,0.4-0.4,0.9-0.7,1.3c-0.3,0.4-0.7,0.7-1.2,1
				c-0.5,0.2-1.1,0.4-1.7,0.4c-1.3,0-2.3-0.3-3-1C62.7,15.5,62.3,14.6,62.2,13.5z M63.6,13.4c0,0.9,0.3,1.6,0.9,2.1
				c0.6,0.6,1.2,0.8,2,0.8c0.8,0,1.4-0.3,1.9-0.8c0.5-0.5,0.7-1.2,0.7-1.9v-0.2c0-0.8-0.3-1.5-0.9-2.1c-0.5-0.6-1.2-0.9-2-0.9
				c-0.7,0-1.3,0.3-1.8,0.8c-0.5,0.5-0.8,1.2-0.8,2.1C63.6,13.3,63.6,13.3,63.6,13.4C63.6,13.4,63.6,13.4,63.6,13.4z"/>
			<path class="st2" d="M72.2,15.8v-5.1c0-0.4-0.1-0.7-0.4-0.9h3.3c0.5,0,0.7,0,0.8-0.1v1.4c-0.2-0.3-0.7-0.5-1.4-0.5
				c-0.3,0-0.7,0-1.1,0.1v1.9h1.2c0.4,0,0.6,0,0.7-0.1v1.2c-0.1-0.2-0.5-0.3-1.2-0.3c0,0-0.3,0-0.7,0v2.3c0,0.6,0.2,1,0.6,1.1h-2.2
				c0.1-0.1,0.2-0.1,0.3-0.2c0.1-0.1,0.1-0.2,0.2-0.3c0-0.1,0-0.2,0.1-0.3C72.2,16.1,72.2,16,72.2,15.8z"/>
		</g>
		<g>
			<path class="st3" d="M83.7,15.5V9c0-0.2,0-0.4,0-0.5c0-0.1-0.1-0.2-0.1-0.3c0,0-0.1-0.1-0.2-0.2c-0.1-0.1-0.2-0.2-0.2-0.2h2.7
				c0,0-0.1,0.1-0.2,0.2c-0.1,0.1-0.2,0.2-0.2,0.2c-0.1,0.1-0.1,0.2-0.2,0.3c-0.1,0.2-0.1,0.4-0.1,0.6v6.6c0.2,0,0.4,0,0.7,0.1
				c0.3,0,0.5,0.1,0.7,0.1c0.2,0,0.4,0,0.5,0c0.9,0,1.7-0.3,2.5-0.8L88.8,17H83c0.4-0.3,0.7-0.7,0.7-1.2V15.5z"/>
			<path class="st3" d="M91.1,15.8l2.1-5.3c0-0.1,0.1-0.2,0.1-0.3c0-0.2-0.1-0.3-0.3-0.5h1.7l2.6,6.2c0.1,0.1,0.1,0.2,0.2,0.3
				c0.1,0.1,0.1,0.2,0.2,0.2c0,0.1,0.1,0.1,0.2,0.2c0.1,0.1,0.2,0.2,0.2,0.2h-2.3c0.3-0.1,0.4-0.3,0.4-0.5c0-0.1,0-0.1,0-0.2
				c0-0.1,0-0.1-0.1-0.2c0-0.1,0-0.1-0.1-0.1l-0.7-1.7h-2.7l-0.7,1.9c0,0,0,0.1,0,0.1c0,0,0,0.1,0,0.1c0,0,0,0.1,0,0.1
				c0,0.1,0,0.1,0,0.2c0,0,0.1,0.1,0.2,0.2c0.1,0.1,0.2,0.1,0.2,0.2h-2.2C90.6,16.6,91,16.2,91.1,15.8z M92.9,13.4H95l-1-2.7
				L92.9,13.4z"/>
			<path class="st3" d="M100.2,15.5l-1.5-4.8c-0.2-0.4-0.4-0.8-0.8-1.1h1.7c0,0.1,0,0.1,0,0.2c0,0.1,0,0.2,0.1,0.3
				c0,0.2,0.1,0.3,0.1,0.4l1.7,5l1.4-4.8c0-0.1,0.1-0.3,0.1-0.4c0-0.3-0.1-0.6-0.4-0.8h1.7c0,0.1,0,0.2,0,0.3c0,0.1,0,0.2,0,0.2
				c0,0.1,0,0.2,0.1,0.3c0,0.1,0,0.2,0,0.3l1.5,4.8l1.4-4.5c0-0.2,0.1-0.4,0.1-0.5c0-0.2,0-0.3-0.1-0.4c-0.1-0.1-0.1-0.2-0.2-0.2
				c-0.1,0-0.2-0.1-0.3-0.2h1.8l-2.3,7.7c-0.2-0.1-0.5-0.3-0.8-0.5c-0.3-0.2-0.5-0.4-0.5-0.6l-1.4-4.3l-1.7,5.5
				c-0.4-0.3-0.7-0.5-1-0.8C100.5,16.3,100.3,15.9,100.2,15.5z"/>
		</g>
		<rect x="47.6" y="20.3" class="st1" width="32" height="1.4"/>
		<rect x="79.3" y="20.3" class="st3" width="32.3" height="1.4"/>
		<g>
			<path class="st2" d="M47.7,36.9c0-0.4,0.1-0.7,0.4-0.9c0.3-0.2,0.6-0.3,1-0.3h0.2c0.4,0,0.7,0,0.9,0.1v0.7
				c-0.1-0.1-0.3-0.2-0.5-0.2c-0.2-0.1-0.4-0.1-0.6-0.1c-0.3,0-0.5,0.1-0.7,0.4c0,0.1-0.1,0.2-0.1,0.2c0,0.1,0.1,0.2,0.2,0.4
				c0.1,0.1,0.3,0.2,0.5,0.3l0.7,0.3c0.1,0.1,0.2,0.1,0.3,0.2c0.1,0.1,0.2,0.2,0.3,0.3c0.1,0.1,0.1,0.3,0.1,0.4
				c0,0.4-0.2,0.7-0.5,0.9c-0.3,0.2-0.7,0.3-1.2,0.3c-0.3,0-0.7-0.1-1.1-0.2L47.7,39c0.4,0.3,0.8,0.5,1.2,0.5c0.2,0,0.4,0,0.6-0.1
				c0.2-0.1,0.3-0.2,0.3-0.3c0,0,0-0.1,0-0.2c0-0.2-0.2-0.5-0.6-0.7l-0.7-0.3c-0.2-0.1-0.4-0.2-0.5-0.4
				C47.9,37.3,47.8,37.1,47.7,36.9z"/>
			<path class="st2" d="M55.4,39.3v-2.9c0-0.3-0.1-0.5-0.3-0.6h1.2c-0.1,0.1-0.2,0.2-0.2,0.2c0,0.1-0.1,0.2-0.1,0.4v2.8
				c0,0.1,0,0.2,0.1,0.3c0.1,0.1,0.2,0.2,0.3,0.2h-1.3c0.1,0,0.2-0.1,0.2-0.2C55.4,39.6,55.4,39.4,55.4,39.3z"/>
			<path class="st2" d="M61,39.3v-2.7c0-0.1,0-0.2,0-0.3c0-0.1,0-0.1-0.1-0.2c0-0.1-0.1-0.1-0.1-0.1c0,0-0.1,0-0.1-0.1
				c-0.1,0-0.1,0-0.1,0h0.9l2.4,3.1v-2.4c0-0.4-0.1-0.6-0.4-0.7h1.2c0,0-0.1,0-0.1,0.1c-0.1,0-0.1,0.1-0.1,0.1c0,0,0,0.1-0.1,0.1
				c0,0.1,0,0.2-0.1,0.3V40c-0.1,0-0.2,0-0.3-0.1c-0.1-0.1-0.2-0.2-0.3-0.3l-2.3-2.9v2.5c0,0.2,0,0.3,0.1,0.4c0,0.1,0.1,0.2,0.3,0.2
				h-1.1c0,0,0,0,0.1-0.1c0,0,0.1-0.1,0.1-0.1c0,0,0,0,0.1-0.1c0,0,0.1-0.1,0.1-0.1c0,0,0-0.1,0-0.1C61,39.4,61,39.3,61,39.3z"/>
			<path class="st2" d="M69,37.9c0-0.5,0.2-0.9,0.4-1.2c0.2-0.3,0.5-0.5,0.9-0.7c0.3-0.1,0.7-0.2,1.2-0.2c0.3,0,0.6,0,1,0.1v0.7
				c-0.3-0.2-0.6-0.4-1.1-0.4c-0.4,0-0.8,0.1-1.2,0.4c-0.3,0.3-0.5,0.7-0.5,1.1c0,0,0,0,0,0.1c0,0,0,0,0,0c0,0.3,0.1,0.6,0.2,0.8
				c0.1,0.2,0.3,0.4,0.4,0.5c0.2,0.1,0.4,0.2,0.6,0.2c0.2,0.1,0.4,0.1,0.6,0.1c0.2,0,0.5,0,0.7-0.1v-0.9c0-0.2,0-0.3-0.1-0.4
				c0-0.1-0.1-0.2-0.2-0.2h0.9c0,0.1,0,0.2,0,0.4v1.2c0,0.1,0,0.2,0,0.3C72.5,39.9,72,40,71.6,40c-0.3,0-0.7,0-1-0.1
				c-0.3-0.1-0.6-0.2-0.8-0.4c-0.3-0.2-0.4-0.4-0.6-0.7C69,38.6,69,38.2,69,37.9z"/>
			<path class="st2" d="M77.5,39.2l1.1-2.9c0-0.1,0-0.1,0-0.2c0-0.1-0.1-0.2-0.2-0.3h0.9l1.4,3.4c0,0.1,0.1,0.1,0.1,0.2
				c0,0.1,0.1,0.1,0.1,0.1c0,0,0.1,0.1,0.1,0.1c0.1,0.1,0.1,0.1,0.1,0.1h-1.3c0.1-0.1,0.2-0.2,0.2-0.3c0,0,0-0.1,0-0.1
				c0,0,0-0.1,0-0.1c0,0,0-0.1,0-0.1l-0.4-1h-1.5l-0.4,1c0,0,0,0,0,0.1c0,0,0,0,0,0.1c0,0,0,0,0,0c0,0,0,0.1,0,0.1
				c0,0,0.1,0.1,0.1,0.1c0.1,0,0.1,0.1,0.1,0.1H77C77.3,39.6,77.5,39.4,77.5,39.2z M78.5,37.9h1.1l-0.6-1.5L78.5,37.9z"/>
			<path class="st2" d="M86,39.3v-2.8c0-0.2,0-0.4-0.1-0.5c0-0.1-0.1-0.1-0.2-0.2H87c0.3,0,0.5,0,0.7,0.1c0.2,0.1,0.4,0.2,0.5,0.3
				c0.1,0.1,0.2,0.2,0.2,0.3c0.1,0.1,0.1,0.2,0.1,0.4V37c0,0.3-0.1,0.6-0.4,0.8c-0.3,0.2-0.5,0.3-0.8,0.3c-0.3,0-0.5,0-0.6-0.1
				c0,0,0,0,0,0c0,0,0,0,0,0c0.3,0,0.5-0.1,0.7-0.3c0.2-0.2,0.3-0.4,0.3-0.6c0-0.3-0.1-0.4-0.2-0.6c-0.2-0.1-0.4-0.2-0.7-0.2
				c-0.1,0-0.2,0-0.3,0v2.9c0,0.3,0.1,0.5,0.3,0.6h-1.3C85.9,39.7,86,39.5,86,39.3z"/>
			<path class="st2" d="M92.8,37.9c0-0.2,0-0.5,0.1-0.7c0.1-0.2,0.2-0.5,0.4-0.7c0.2-0.2,0.4-0.4,0.7-0.5c0.3-0.1,0.6-0.2,1-0.2
				c0.6,0,1.2,0.2,1.6,0.5c0.4,0.4,0.6,0.9,0.7,1.5c0,0.2,0,0.5-0.1,0.7c-0.1,0.2-0.2,0.5-0.4,0.7c-0.2,0.2-0.4,0.4-0.7,0.5
				c-0.3,0.1-0.6,0.2-1,0.2c-0.7,0-1.3-0.2-1.7-0.6C93.1,39,92.8,38.5,92.8,37.9z M93.5,37.9c0,0.5,0.2,0.9,0.5,1.2
				c0.3,0.3,0.7,0.5,1.1,0.5c0.4,0,0.8-0.1,1-0.4c0.3-0.3,0.4-0.7,0.4-1.1v-0.1c0-0.4-0.2-0.8-0.5-1.2c-0.3-0.3-0.6-0.5-1.1-0.5
				c-0.4,0-0.7,0.1-1,0.4C93.7,36.9,93.5,37.3,93.5,37.9C93.5,37.8,93.5,37.8,93.5,37.9C93.5,37.9,93.5,37.9,93.5,37.9z"/>
			<path class="st2" d="M101.9,39.4v-2.9c0-0.1,0-0.2,0-0.2c0-0.1,0-0.1-0.1-0.2c0,0,0-0.1-0.1-0.1c0,0,0,0-0.1-0.1l-0.1,0h1.3
				c0.4,0,0.8,0.1,1,0.2c0.3,0.2,0.4,0.4,0.4,0.7c0,0.3-0.1,0.5-0.3,0.7c-0.2,0.2-0.4,0.3-0.7,0.4c0.1,0.1,0.2,0.2,0.3,0.4
				c0.2,0.2,0.3,0.4,0.4,0.5c0.1,0.1,0.2,0.2,0.3,0.4c0.1,0.1,0.3,0.3,0.4,0.4c0.1,0.1,0.3,0.2,0.4,0.3h-0.7c-0.1,0-0.3,0-0.4-0.1
				c-0.1,0-0.2-0.1-0.3-0.3l-1.2-1.7c0.4-0.1,0.7-0.3,0.8-0.4c0.2-0.1,0.2-0.3,0.2-0.5v-0.1c0-0.2-0.1-0.3-0.2-0.5
				c-0.1-0.1-0.3-0.2-0.6-0.2c-0.1,0-0.2,0-0.4,0v3c0,0.3,0.1,0.4,0.3,0.5h-1.2C101.8,39.8,101.9,39.6,101.9,39.4z"/>
			<path class="st2" d="M109.3,39.3v-2.8c0-0.1,0-0.2,0-0.2c0-0.1,0-0.1-0.1-0.2c0-0.1-0.1-0.2-0.2-0.2h1.9c0.1,0,0.2,0,0.3,0v0.8
				c-0.1-0.2-0.4-0.2-0.9-0.2c-0.2,0-0.4,0-0.5,0v1.1h0.6c0.2,0,0.4,0,0.4,0v0.7c-0.1-0.1-0.3-0.2-0.6-0.2h-0.4v1.4
				c0.4,0.1,0.7,0.1,0.8,0.1c0.4,0,0.8-0.1,1.1-0.4l-0.3,0.8H109C109.2,39.7,109.3,39.5,109.3,39.3z"/>
		</g>
	</g>
</g>
</svg>
