<?xml version="1.0" encoding="utf-8"?>
<!-- Generator: Adobe Illustrator 21.0.0, SVG Export Plug-In . SVG Version: 6.00 Build 0)  -->
<svg version="1.1" id="Layer_1" xmlns="http://www.w3.org/2000/svg" xmlns:xlink="http://www.w3.org/1999/xlink" x="0px" y="0px"
	 viewBox="0 0 392 79" style="enable-background:new 0 0 392 79;" xml:space="preserve">
<style type="text/css">
	.st0{fill:#404041;}
	.st1{fill:#00A04B;}
	.st2{fill:#7F3F96;}
	.st3{fill:#F5333F;}
	.st4{fill:#F9AE40;}
	.st5{fill:#3A8DDE;}
	.st6{fill:#262261;}
</style>
<g>
	<g>
		<path class="st0" d="M250.5,44.3c-1.6,0-2.8-0.4-3.9-1.4l1.1-1.1c0.8,0.8,1.7,1.1,2.8,1.1c1.4,0,2.3-0.6,2.3-1.7
			c0-0.5-0.1-0.9-0.4-1.1c-0.3-0.3-0.6-0.4-1.2-0.5l-1.3-0.2c-0.9-0.1-1.6-0.4-2.1-0.9c-0.5-0.5-0.8-1.2-0.8-2.1
			c0-1.9,1.4-3.2,3.6-3.2c1.5,0,2.5,0.4,3.4,1.2l-1,1c-0.7-0.6-1.5-0.8-2.4-0.8c-1.3,0-2,0.7-2,1.7c0,0.4,0.1,0.8,0.4,1
			c0.3,0.3,0.6,0.4,1.2,0.5l1.3,0.2c1,0.2,1.5,0.4,2,0.8c0.6,0.5,0.9,1.3,0.9,2.2C254.4,43.1,252.8,44.3,250.5,44.3z"/>
		<path class="st0" d="M262.7,44.2v-4.8h-4.4v4.8h-1.7V33.3h1.7v4.7h4.4v-4.7h1.7v10.9H262.7z"/>
		<path class="st0" d="M273.5,44.2l-0.8-2.2h-4.3l-0.8,2.2h-1.8l4-10.9h1.3l4,10.9H273.5z M270.6,35.7l-1.7,4.8h3.4L270.6,35.7z"/>
		<path class="st0" d="M283.5,44.2l-5-7.7v7.7h-1.7V33.3h1.5l5,7.7v-7.7h1.7v10.9H283.5z"/>
		<path class="st0" d="M294.4,43c-0.8,0.9-1.9,1.2-3,1.2c-1.2,0-2.1-0.4-2.8-1.1c-1.1-1.1-1.1-2.2-1.1-4.4c0-2.3,0-3.4,1.1-4.5
			c0.7-0.7,1.6-1.1,2.8-1.1c2.3,0,3.7,1.5,4,3.4h-1.7c-0.3-1.2-1.1-1.9-2.3-1.9c-0.7,0-1.2,0.3-1.6,0.7c-0.5,0.6-0.6,1.2-0.6,3.4
			s0.1,2.8,0.6,3.4c0.4,0.4,1,0.7,1.6,0.7c0.7,0,1.4-0.3,1.8-0.8c0.4-0.5,0.5-1,0.5-1.7v-0.6h-2.3v-1.4h4v1.7
			C295.4,41.4,295.1,42.3,294.4,43z"/>
		<path class="st0" d="M303.8,44.2l-2.3-4.6h-2.1v4.6h-1.7V33.3h4.2c2.1,0,3.4,1.3,3.4,3.2c0,1.6-1,2.6-2.2,2.9l2.5,4.8
			C305.8,44.2,303.8,44.2,303.8,44.2z M301.9,34.8h-2.5v3.4h2.5c1.1,0,1.9-0.6,1.9-1.7C303.8,35.4,303,34.8,301.9,34.8z"/>
		<path class="st0" d="M307.9,44.2V33.3h1.7v10.9H307.9z"/>
		<path class="st0" d="M312,39.5V38h4.5v1.5H312z"/>
		<path class="st0" d="M318.9,44.2V33.3h1.7v9.4h5.3v1.5H318.9z"/>
		<path class="st0" d="M334,44.2l-0.8-2.2h-4.3l-0.8,2.2h-1.8l4-10.9h1.3l4,10.9H334z M331.1,35.7l-1.7,4.8h3.4L331.1,35.7z"/>
		<path class="st0" d="M347,44.2v-4.8h-4.4v4.8h-1.7V33.3h1.7v4.7h4.4v-4.7h1.7v10.9H347z"/>
		<path class="st0" d="M357.9,43.2c-0.7,0.7-1.6,1.1-2.8,1.1s-2.1-0.4-2.8-1.1c-1.1-1.1-1.1-2.2-1.1-4.4c0-2.3,0-3.4,1.1-4.5
			c0.7-0.7,1.6-1.1,2.8-1.1s2.1,0.4,2.8,1.1c1.1,1.1,1.1,2.2,1.1,4.5C359,41,359,42.1,357.9,43.2z M356.7,35.3
			c-0.4-0.4-1-0.7-1.6-0.7s-1.2,0.3-1.6,0.7c-0.5,0.6-0.6,1.2-0.6,3.4c0,2.2,0.1,2.8,0.6,3.4c0.4,0.4,1,0.7,1.6,0.7s1.2-0.3,1.6-0.7
			c0.5-0.6,0.6-1.2,0.6-3.4C357.3,36.6,357.3,35.9,356.7,35.3z"/>
		<path class="st0" d="M364.8,34.8v9.4h-1.7v-9.4h-3v-1.5h7.7v1.5H364.8z"/>
		<path class="st0" d="M369.7,44.2V33.3h7v1.5h-5.3v3.2h4.5v1.5h-4.5v3.3h5.3v1.5H369.7z"/>
		<path class="st0" d="M379,44.2V33.3h1.7v9.4h5.3v1.5H379z"/>
		<path class="st0" d="M387.5,46.6v-4.2h1.8v2.7L387.5,46.6z"/>
		<path class="st0" d="M250.5,62.7c-1.6,0-2.8-0.4-3.9-1.4l1.1-1.1c0.8,0.8,1.7,1.1,2.8,1.1c1.4,0,2.3-0.6,2.3-1.7
			c0-0.5-0.1-0.9-0.4-1.1c-0.3-0.3-0.6-0.4-1.2-0.5l-1.3-0.2c-0.9-0.1-1.6-0.4-2.1-0.9c-0.5-0.5-0.8-1.2-0.8-2.1
			c0-1.9,1.4-3.2,3.6-3.2c1.5,0,2.5,0.4,3.4,1.2l-1,1c-0.7-0.6-1.5-0.8-2.4-0.8c-1.3,0-2,0.7-2,1.7c0,0.4,0.1,0.8,0.4,1
			c0.3,0.3,0.6,0.4,1.2,0.5l1.3,0.2c1,0.2,1.5,0.4,2,0.8c0.6,0.5,0.9,1.3,0.9,2.2C254.4,61.5,252.8,62.7,250.5,62.7z"/>
		<path class="st0" d="M256.6,62.6V51.7h1.7v10.9H256.6z"/>
		<path class="st0" d="M267.8,62.6l-5-7.7v7.7h-1.7V51.7h1.5l5,7.7v-7.7h1.7v10.9H267.8z"/>
		<path class="st0" d="M278.7,61.4c-0.8,0.9-1.9,1.2-3,1.2c-1.2,0-2.1-0.4-2.8-1.1c-1.1-1.1-1.1-2.2-1.1-4.4c0-2.3,0-3.4,1.1-4.4
			c0.7-0.7,1.6-1.1,2.8-1.1c2.3,0,3.7,1.5,4,3.4H278c-0.3-1.2-1.1-1.9-2.3-1.9c-0.7,0-1.2,0.3-1.6,0.7c-0.5,0.6-0.6,1.2-0.6,3.4
			s0.1,2.8,0.6,3.4c0.4,0.4,1,0.7,1.6,0.7c0.7,0,1.4-0.3,1.8-0.8c0.4-0.5,0.5-1,0.5-1.7v-0.6h-2.3v-1.4h4v1.7
			C279.7,59.8,279.4,60.7,278.7,61.4z"/>
		<path class="st0" d="M288.3,62.6l-0.8-2.2h-4.3l-0.8,2.2h-1.8l4-10.9h1.3l4,10.9H288.3z M285.4,54.1l-1.7,4.8h3.4L285.4,54.1z"/>
		<path class="st0" d="M295.7,58.3h-2.5v4.3h-1.7V51.7h4.1c2.1,0,3.5,1.4,3.5,3.3C299.2,56.9,297.8,58.3,295.7,58.3z M295.6,53.2
			h-2.4v3.7h2.4c1.2,0,1.9-0.7,1.9-1.8C297.5,53.8,296.8,53.2,295.6,53.2z"/>
		<path class="st0" d="M307.6,61.6c-0.7,0.7-1.6,1.1-2.8,1.1s-2.1-0.4-2.8-1.1c-1.1-1.1-1.1-2.2-1.1-4.4c0-2.3,0-3.4,1.1-4.4
			c0.7-0.7,1.6-1.1,2.8-1.1s2.1,0.4,2.8,1.1c1.1,1.1,1.1,2.2,1.1,4.4C308.7,59.4,308.6,60.5,307.6,61.6z M306.4,53.7
			c-0.4-0.4-1-0.7-1.6-0.7s-1.2,0.3-1.6,0.7c-0.5,0.6-0.6,1.2-0.6,3.4s0.1,2.8,0.6,3.4c0.4,0.4,1,0.7,1.6,0.7s1.2-0.3,1.6-0.7
			c0.5-0.6,0.6-1.2,0.6-3.4C307,55,306.9,54.3,306.4,53.7z"/>
		<path class="st0" d="M317.1,62.6l-2.3-4.6h-2.1v4.6h-1.7V51.7h4.2c2.1,0,3.4,1.3,3.4,3.2c0,1.6-1,2.6-2.2,2.9l2.5,4.8
			C319.1,62.6,317.1,62.6,317.1,62.6z M315.2,53.2h-2.5v3.4h2.5c1.1,0,1.9-0.6,1.9-1.7C317.1,53.8,316.3,53.2,315.2,53.2z"/>
		<path class="st0" d="M321.1,62.6V51.7h7v1.5h-5.3v3.2h4.5v1.5h-4.5v3.3h5.3v1.5H321.1z"/>
	</g>
	<g>
		<path class="st0" d="M250.4,25.7c-2.1,0-3.7-1.3-3.7-3.7c0-1.1,0.5-2.1,1-3.2l2.5-5.2h2.4l-2.5,4.9c0.3-0.1,0.6-0.2,0.9-0.2
			c1.6,0,3.1,1.3,3.1,3.5C254.1,24.4,252.5,25.7,250.4,25.7z M250.4,20.3c-0.9,0-1.5,0.6-1.5,1.7c0,1.1,0.6,1.7,1.5,1.7
			s1.5-0.6,1.5-1.7C251.9,21,251.3,20.3,250.4,20.3z"/>
		<path class="st0" d="M259.8,20.7v-2h5.2v2H259.8z"/>
		<path class="st0" d="M274.4,25.6h-2.4l3.9-10h-3.1v1.9h-2.1v-3.8h7.6v2L274.4,25.6z"/>
		<path class="st0" d="M291,25.6l-0.7-2.1h-4.2l-0.7,2.1h-2.4l4.3-11.9h1.8l4.4,11.9H291z M288.2,17.2l-1.5,4.3h3L288.2,17.2z"/>
		<path class="st0" d="M299.1,25.7c-2.4,0-4.4-1.7-4.4-4.2v-7.8h2.3v7.8c0,1.4,0.8,2.2,2.1,2.2s2.1-0.8,2.1-2.2v-7.8h2.3v7.8
			C303.5,24.1,301.5,25.7,299.1,25.7z"/>
		<path class="st0" d="M313.4,24.4c-1,1-2.1,1.4-3.4,1.4c-1.4,0-2.4-0.5-3.2-1.3c-1.2-1.2-1.2-2.5-1.2-4.8s0-3.6,1.2-4.8
			c0.8-0.8,1.8-1.3,3.2-1.3c2.8,0,4.2,1.8,4.5,3.8h-2.3c-0.3-1.1-1-1.7-2.1-1.7c-0.6,0-1.1,0.3-1.5,0.6c-0.4,0.5-0.6,1.1-0.6,3.3
			s0.1,2.9,0.6,3.4c0.4,0.4,0.9,0.6,1.5,0.6c0.7,0,1.3-0.3,1.7-0.7c0.4-0.4,0.5-1,0.5-1.6V21h-2.2v-2h4.5v1.7
			C314.6,22.5,314.3,23.5,313.4,24.4z"/>
		<path class="st0" d="M321.2,25.7c-2.4,0-4.4-1.7-4.4-4.2v-7.8h2.3v7.8c0,1.4,0.8,2.2,2.1,2.2s2.1-0.8,2.1-2.2v-7.8h2.3v7.8
			C325.5,24.1,323.6,25.7,321.2,25.7z"/>
		<path class="st0" d="M331.4,25.7c-1.8,0-3.2-0.4-4.4-1.6l1.5-1.5c0.8,0.8,1.8,1,2.9,1c1.4,0,2.1-0.5,2.1-1.5c0-0.4-0.1-0.7-0.4-1
			c-0.2-0.2-0.5-0.3-1.1-0.4l-1.4-0.2c-1-0.2-1.8-0.5-2.3-1c-0.6-0.5-0.9-1.3-0.9-2.3c0-2.1,1.6-3.6,4.1-3.6c1.6,0,2.8,0.4,3.9,1.4
			l-1.5,1.5c-0.7-0.7-1.7-0.8-2.4-0.8c-1.2,0-1.8,0.7-1.8,1.5c0,0.3,0.1,0.6,0.3,0.8c0.2,0.2,0.6,0.4,1.1,0.5l1.4,0.2
			c1.1,0.2,1.8,0.4,2.3,0.9c0.6,0.6,0.9,1.4,0.9,2.5C335.8,24.4,333.9,25.7,331.4,25.7z"/>
		<path class="st0" d="M342.6,15.8v9.8h-2.3v-9.8h-3.1v-2.1h8.5v2.1C345.7,15.8,342.6,15.8,342.6,15.8z"/>
		<path class="st0" d="M351.1,25.6v-2l4.5-5.2c0.4-0.5,0.6-0.9,0.6-1.4c0-0.9-0.5-1.5-1.4-1.5c-0.7,0-1.5,0.4-1.5,1.5h-2.2
			c0-2.2,1.6-3.5,3.6-3.5c2.1,0,3.6,1.3,3.6,3.5c0,1.2-0.5,1.8-1.3,2.7l-3.3,3.9h4.6v2H351.1z"/>
		<path class="st0" d="M363.7,25.7c-1.9,0-3.6-1.3-3.6-3.5v-5c0-2.3,1.7-3.5,3.6-3.5s3.6,1.3,3.6,3.5v5
			C367.4,24.5,365.7,25.7,363.7,25.7z M365.2,17.2c0-1-0.6-1.6-1.4-1.6s-1.5,0.6-1.5,1.6v5c0,1,0.6,1.6,1.5,1.6s1.4-0.6,1.4-1.6
			V17.2z"/>
		<path class="st0" d="M372.4,25.6v-9.6l-2.4,2.1v-2.3l2.4-2.1h2.2v11.9L372.4,25.6L372.4,25.6z"/>
		<path class="st0" d="M384.7,20.5l-2.5,5.2h-2.4l2.5-4.9c-0.3,0.1-0.6,0.2-0.9,0.2c-1.6,0-3.1-1.3-3.1-3.5c0-2.3,1.6-3.7,3.7-3.7
			c2.1,0,3.7,1.3,3.7,3.7C385.7,18.4,385.2,19.4,384.7,20.5z M381.9,15.6c-0.9,0-1.5,0.6-1.5,1.7c0,1,0.6,1.7,1.5,1.7
			c0.9,0,1.5-0.6,1.5-1.7S382.8,15.6,381.9,15.6z"/>
	</g>
	<g>
		<rect x="226.9" y="13.6" class="st0" width="1.3" height="51.5"/>
	</g>
	<g>
		<g>
			<path class="st0" d="M95.2,29.5c-2.1,0-3.6-0.4-5-1.8l1.7-1.7c0.9,0.9,2,1.2,3.3,1.2c1.6,0,2.4-0.6,2.4-1.7
				c0-0.5-0.1-0.9-0.4-1.2C97,24,96.7,23.9,96,23.8l-1.6-0.2c-1.2-0.2-2-0.5-2.6-1.1c-0.6-0.7-1-1.5-1-2.7c0-2.4,1.8-4.1,4.8-4.1
				c1.9,0,3.2,0.5,4.4,1.6l-1.7,1.7c-0.9-0.8-1.9-0.9-2.8-0.9c-1.4,0-2.1,0.8-2.1,1.7c0,0.3,0.1,0.7,0.4,1c0.3,0.3,0.7,0.5,1.3,0.5
				l1.6,0.2c1.3,0.2,2,0.5,2.6,1c0.7,0.7,1.1,1.7,1.1,2.9C100.3,28,98.1,29.5,95.2,29.5z"/>
			<path class="st0" d="M102.4,29.3V15.7h2.7v13.6C105.1,29.3,102.4,29.3,102.4,29.3z"/>
			<path class="st0" d="M116,29.3l-5.4-8.4v8.4h-2.7V15.7h2.4l5.4,8.4v-8.3h2.7v13.6H116z"/>
			<path class="st0" d="M129.7,27.9c-1.1,1.1-2.3,1.5-3.9,1.5c-1.5,0-2.7-0.5-3.7-1.5c-0.6-0.6-1-1.3-1.1-2s-0.2-1.9-0.2-3.4
				c0-1.5,0.1-2.6,0.2-3.4c0.1-0.8,0.5-1.5,1.1-2c1-1,2.2-1.5,3.7-1.5c3.1,0,4.8,2,5.1,4.4h-2.7c-0.3-1.3-1.1-2-2.4-2
				c-0.7,0-1.3,0.3-1.7,0.7c-0.5,0.6-0.6,1.1-0.6,3.8c0,2.7,0.1,3.2,0.6,3.8c0.4,0.5,1,0.7,1.7,0.7c0.8,0,1.4-0.3,1.9-0.8
				c0.4-0.5,0.6-1.1,0.6-1.8V24h-2.5v-2.2h5.1v2C131,25.7,130.6,26.9,129.7,27.9z"/>
			<path class="st0" d="M141,29.3l-0.8-2.4h-4.9l-0.8,2.4h-2.8l5-13.6h2.1l5,13.6H141z M137.8,19.7l-1.7,5h3.4L137.8,19.7z"/>
			<path class="st0" d="M150.8,24.2h-2.6v5.1h-2.7V15.7h5.3c2.8,0,4.5,1.9,4.5,4.3S153.6,24.2,150.8,24.2z M150.7,18.1h-2.5v3.7h2.5
				c1.2,0,2-0.8,2-1.9C152.7,18.8,151.9,18.1,150.7,18.1z"/>
			<path class="st0" d="M165.8,28c-1,1-2.1,1.5-3.7,1.5s-2.7-0.5-3.7-1.5c-1.4-1.4-1.3-3.1-1.3-5.4s0-4.1,1.3-5.4
				c1-1,2.1-1.5,3.7-1.5c1.5,0,2.7,0.5,3.7,1.5c1.4,1.4,1.4,3.1,1.4,5.4C167.2,24.9,167.2,26.6,165.8,28z M163.9,18.7
				c-0.4-0.4-1-0.7-1.7-0.7c-0.7,0-1.3,0.3-1.7,0.7c-0.5,0.6-0.6,1.2-0.6,3.8c0,2.6,0.1,3.3,0.6,3.8c0.4,0.4,1,0.7,1.7,0.7
				c0.7,0,1.3-0.3,1.7-0.7c0.5-0.6,0.7-1.2,0.7-3.8S164.4,19.3,163.9,18.7z"/>
			<path class="st0" d="M176.9,29.3l-2.7-5.4h-1.9v5.4h-2.7V15.7h5.4c2.8,0,4.4,1.9,4.4,4.2c0,1.9-1.2,3.1-2.5,3.6l3,5.9
				C180,29.3,176.9,29.3,176.9,29.3z M174.8,18.1h-2.5v3.6h2.5c1.2,0,1.9-0.8,1.9-1.8S176,18.1,174.8,18.1z"/>
			<path class="st0" d="M182,29.3V15.7h9v2.4h-6.3v3.2h5.4v2.4h-5.4V27h6.3v2.4L182,29.3L182,29.3z"/>
			<path class="st0" d="M96.1,47.8c-1.5,0-2.7-0.5-3.7-1.5c-0.6-0.6-1-1.3-1.1-2.1c-0.1-0.8-0.2-1.9-0.2-3.4s0.1-2.6,0.2-3.4
				c0.1-0.8,0.5-1.5,1.1-2c1-1,2.2-1.5,3.7-1.5c2.6,0,4.6,1.5,5,4.3h-2.7c-0.3-1.2-1-1.9-2.3-1.9c-0.7,0-1.3,0.2-1.7,0.7
				c-0.6,0.6-0.7,1.2-0.7,3.8s0.1,3.3,0.7,3.8c0.4,0.5,1,0.7,1.7,0.7c1.3,0,2-0.8,2.3-1.9h2.7C100.6,46.2,98.7,47.8,96.1,47.8z"/>
			<path class="st0" d="M111.6,46.3c-1,1-2.1,1.5-3.7,1.5c-1.6,0-2.7-0.5-3.7-1.5c-1.4-1.4-1.3-3.1-1.3-5.4s0-4.1,1.3-5.4
				c1-1,2.1-1.5,3.7-1.5s2.7,0.5,3.7,1.5c1.4,1.4,1.4,3.1,1.4,5.4S113,44.9,111.6,46.3z M109.6,37c-0.4-0.4-1-0.7-1.7-0.7
				c-0.7,0-1.3,0.3-1.7,0.7c-0.5,0.6-0.6,1.2-0.6,3.8c0,2.6,0.1,3.3,0.6,3.8c0.4,0.4,1,0.7,1.7,0.7c0.7,0,1.3-0.3,1.7-0.7
				c0.5-0.6,0.7-1.2,0.7-3.8S110.1,37.6,109.6,37z"/>
			<path class="st0" d="M123.5,47.7l-5.4-8.4v8.4h-2.7V34h2.4l5.4,8.3V34h2.7v13.6H123.5z"/>
			<path class="st0" d="M134.1,47.7h-2L127.6,34h2.8l2.7,8.9l2.7-8.9h2.8L134.1,47.7z"/>
			<path class="st0" d="M140.4,47.7V34h9v2.4H143v3.2h5.4V42H143v3.3h6.3v2.4L140.4,47.7L140.4,47.7z"/>
			<path class="st0" d="M159.8,47.7l-5.4-8.4v8.4h-2.7V34h2.4l5.4,8.3V34h2.7v13.6H159.8z"/>
			<path class="st0" d="M170.3,36.4v11.3h-2.7V36.4h-3.6V34h9.8v2.4H170.3z"/>
			<path class="st0" d="M175.9,47.7V34h2.7v13.6H175.9z"/>
			<path class="st0" d="M189.7,46.3c-1,1-2.1,1.5-3.7,1.5s-2.7-0.5-3.7-1.5c-1.4-1.4-1.3-3.1-1.3-5.4s0-4.1,1.3-5.4
				c1-1,2.1-1.5,3.7-1.5c1.5,0,2.7,0.5,3.7,1.5c1.4,1.4,1.4,3.1,1.4,5.4S191.1,44.9,189.7,46.3z M187.7,37c-0.4-0.4-1-0.7-1.7-0.7
				c-0.7,0-1.3,0.3-1.7,0.7c-0.5,0.6-0.6,1.2-0.6,3.8c0,2.6,0.1,3.3,0.6,3.8c0.4,0.4,1,0.7,1.7,0.7c0.7,0,1.3-0.3,1.7-0.7
				c0.5-0.6,0.7-1.2,0.7-3.8C188.4,38.2,188.3,37.6,187.7,37z"/>
			<path class="st0" d="M201.6,47.7l-5.4-8.4v8.4h-2.7V34h2.4l5.4,8.3V34h2.7v13.6H201.6z"/>
			<path class="st0" d="M98.5,61.8c-0.9,0.9-1.9,1.4-3.3,1.4s-2.4-0.4-3.3-1.3s-1.3-2-1.3-3.3v0c0-1.3,0.4-2.4,1.3-3.3
				c0.9-0.9,1.9-1.4,3.3-1.4s2.4,0.4,3.3,1.3s1.3,2,1.3,3.3v0C99.8,59.8,99.4,60.9,98.5,61.8z M92.7,61.1c0.7,0.7,1.5,1.1,2.5,1.1
				c1,0,1.9-0.3,2.5-1.1c0.7-0.7,1-1.6,1-2.6v0c0-1-0.3-1.9-1-2.6s-1.5-1.1-2.5-1.1c-1,0-1.9,0.3-2.5,1.1c-0.7,0.7-1,1.6-1,2.6v0
				C91.7,59.5,92.1,60.4,92.7,61.1z"/>
			<path class="st0" d="M103.4,63V54h0.9l5.6,7.2V54h1V63h-0.8l-5.8-7.3V63H103.4z"/>
			<path class="st0" d="M120.3,63V54h1l3.3,4.9l3.3-4.9h1V63h-1v-7.2l-3.3,4.8h-0.1l-3.3-4.8V63C121.3,63,120.3,63,120.3,63z"/>
			<path class="st0" d="M132.9,63V54h6.5V55h-5.4V58h4.9v0.9h-4.9v3.1h5.5V63C139.4,63,132.9,63,132.9,63z"/>
			<path class="st0" d="M142.8,63V54h3.1c1.4,0,2.5,0.4,3.4,1.3s1.3,1.9,1.3,3.2v0c0,1.3-0.4,2.3-1.3,3.2c-0.9,0.8-2,1.3-3.4,1.3
				C145.9,63,142.8,63,142.8,63z M145.9,55h-2.1v7.1h2.1c1.1,0,2-0.3,2.7-1c0.7-0.7,1-1.5,1-2.5v0c0-1-0.3-1.9-1-2.5
				C147.9,55.3,147,55,145.9,55z"/>
			<path class="st0" d="M154.2,63V54h1V63H154.2z"/>
			<path class="st0" d="M158.4,63l4.1-9h1l4.1,9h-1.1l-1-2.4h-4.9l-1.1,2.4H158.4z M160.9,59.7h4.1l-2-4.6L160.9,59.7z"/>
			<path class="st0" d="M171.8,63v-8h-3V54h7V55h-3v8H171.8z"/>
			<path class="st0" d="M179.1,63V54h1V63H179.1z"/>
			<path class="st0" d="M191.6,61.8c-0.9,0.9-2,1.4-3.3,1.4s-2.4-0.4-3.3-1.3c-0.9-0.9-1.3-2-1.3-3.3v0c0-1.3,0.4-2.4,1.3-3.3
				c0.9-0.9,2-1.4,3.3-1.4s2.4,0.4,3.3,1.3c0.9,0.9,1.3,2,1.3,3.3v0C192.9,59.8,192.4,60.9,191.6,61.8z M185.8,61.1
				c0.7,0.7,1.5,1.1,2.5,1.1c1,0,1.9-0.3,2.5-1.1s1-1.6,1-2.6v0c0-1-0.3-1.9-1-2.6s-1.5-1.1-2.5-1.1s-1.9,0.3-2.5,1.1s-1,1.6-1,2.6
				v0C184.8,59.5,185.1,60.4,185.8,61.1z"/>
			<path class="st0" d="M196.5,63V54h1l5.6,7.2V54h1V63h-0.8l-5.8-7.3V63H196.5z"/>
		</g>
		<g>
			<g>
				<path class="st1" d="M64.7,61.7c-1.9,0.2-5.3,0.7-8.9,1.2c-0.5,1-1.2,1.9-1.9,2.8C60,64.9,66.4,64,66.5,64
					c0.4-0.1,0.7-0.3,0.9-0.6s0.3-0.7,0.1-1.1L65,54.2c-0.8,0.3-1.6,0.6-2.4,0.8L64.7,61.7z"/>
				<path class="st2" d="M16.5,61.7l2.1-6.7c-0.8-0.2-1.6-0.5-2.4-0.8l-2.6,8.2c-0.1,0.4-0.1,0.8,0.1,1.1s0.5,0.5,0.9,0.6
					c0.1,0,6.6,0.8,12.6,1.6c-0.7-0.9-1.4-1.8-1.9-2.8C21.8,62.4,18.4,61.9,16.5,61.7z"/>
			</g>
			<g>
				<path class="st3" d="M40.6,44.2c-2.2,0-4-1.8-4-4s1.8-4,4-4c2.2,0,4,1.8,4,4C44.6,42.4,42.8,44.2,40.6,44.2z"/>
			</g>
			<g>
				<path class="st3" d="M46.9,40.6c1.6-0.6,3-1.5,4.4-2.6c3.4-2.8,5.5-6.8,5.9-11.3c0.4-4.4-1-8.7-3.8-12.1l-11.7-14c0,0,0,0,0,0
					l0,0c-0.2-0.3-0.6-0.4-1-0.4l0,0c-0.4,0-0.7,0.2-1,0.4l0,0c0,0,0,0,0,0l-11.7,14c-1.6,2-2.8,4.2-3.4,6.6
					c0.8,0.1,1.7,0.2,2.5,0.4c0.5-2,1.5-3.8,2.8-5.4L40.6,3.4l10.8,12.8c2.4,2.9,3.6,6.5,3.2,10.3c-0.3,3.7-2.1,7.1-5,9.5
					c-0.9,0.8-2,1.4-3.1,2c0.3,0.7,0.4,1.4,0.4,2.2C46.9,40.3,46.9,40.5,46.9,40.6z"/>
				<path class="st3" d="M34.6,38c-1.1-0.5-2.1-1.2-3.1-2c-2.7-2.3-4.4-5.4-4.9-8.8c-0.9-0.3-1.7-0.5-2.6-0.5c0,0,0,0,0,0.1
					c0.4,4.4,2.5,8.4,5.9,11.3c1.3,1.1,2.8,2,4.4,2.6c0-0.1,0-0.3,0-0.4C34.3,39.4,34.4,38.7,34.6,38z"/>
				<path class="st4" d="M35.3,43.6c-1.1,2.5-2.9,4.6-5.2,6.1c-3,1.9-6.5,2.5-10,1.7c-3.4-0.8-6.4-2.9-8.2-5.9L3.5,32l14.6-5.9
					c3.3-1.3,6.9-1.3,10.1,0.1s5.8,3.9,7.1,7.2c0.3,0.8,0.5,1.5,0.7,2.3c0.6-0.7,1.4-1.2,2.3-1.5c-0.2-0.6-0.4-1.2-0.6-1.8
					c-1.6-3.9-4.6-7-8.5-8.6c-3.9-1.7-8.2-1.7-12.1-0.1l-16,6.5c0,0,0,0,0,0l0,0c-0.3,0.1-0.6,0.4-0.7,0.8c-0.1,0.3-0.1,0.7,0.1,1
					l0,0c0,0,0,0,0,0l9.2,14.6c2.2,3.6,5.7,6.1,9.8,7c1.2,0.3,2.4,0.4,3.6,0.4c2.9,0,5.8-0.8,8.3-2.4c2.5-1.5,4.4-3.7,5.7-6.3
					C36.4,45,35.8,44.3,35.3,43.6z"/>
				<path class="st5" d="M80.8,31c-0.1-0.3-0.4-0.6-0.7-0.8l0,0c0,0,0,0,0,0l-16-6.5c-1.8-0.7-3.7-1.1-5.6-1.2
					c0.1,0.8,0.2,1.7,0.2,2.6c1.5,0.1,3,0.4,4.4,1l14.6,5.9l-8.4,13.4c-1.9,3-4.8,5.1-8.2,5.9s-7,0.2-10-1.7
					c-2.3-1.4-4.1-3.6-5.2-6.1c-0.5,0.8-1.1,1.4-1.9,1.9c1.3,2.6,3.3,4.8,5.7,6.3c2.5,1.6,5.4,2.4,8.3,2.4c1.2,0,2.4-0.1,3.6-0.4
					c4.1-0.9,7.6-3.4,9.8-7l9.1-14.6c0,0,0,0,0,0l0,0C80.8,31.8,80.9,31.4,80.8,31z"/>
				<path class="st5" d="M45.1,35.8c0.2-0.8,0.4-1.6,0.7-2.3c1.3-3.3,3.8-5.8,7.1-7.2c0.1,0,0.2-0.1,0.2-0.1c0.1-0.9,0-1.8-0.1-2.7
					c-0.4,0.1-0.8,0.3-1.1,0.4c-3.9,1.7-6.9,4.7-8.5,8.6c-0.2,0.6-0.4,1.2-0.6,1.8C43.7,34.6,44.5,35.1,45.1,35.8z"/>
			</g>
			<g>
				<path class="st6" d="M56.3,53.3c-0.4-4.2-2.4-8-5.6-10.7c-1.2-1-2.4-1.8-3.8-2.4c0,0.9-0.2,1.8-0.6,2.5c1,0.5,1.9,1.1,2.8,1.8
					c2.7,2.3,4.4,5.5,4.7,9c0.3,3.5-0.8,6.9-3,9.7l0,0L40.6,75.3L30.5,63.2c-2.3-2.7-3.4-6.1-3-9.7c0.3-3.5,2-6.7,4.7-9
					c0.9-0.7,1.8-1.3,2.8-1.8c-0.4-0.8-0.6-1.6-0.6-2.5c-1.4,0.6-2.7,1.4-3.8,2.4c-3.2,2.7-5.2,6.5-5.6,10.7
					c-0.4,4.2,0.9,8.3,3.6,11.5l11.1,13.2c0,0,0,0,0,0l0,0c0.2,0.3,0.6,0.4,1,0.4s0.7-0.2,1-0.4l0,0c0,0,0,0,0,0l11.1-13.2
					C55.4,61.6,56.7,57.5,56.3,53.3z"/>
			</g>
		</g>
	</g>
</g>
</svg>
